<svg xmlns="http://www.w3.org/2000/svg" viewBox="99.39 209.93 212.45 63.4">
  <path d="M 130.769 261.971 C 135.07 261.971 138.632 258.079 137.836 253.402 C 137.336 250.468 136.582 247.593 135.577 244.82 C 133.609 239.383 130.723 234.441 127.087 230.28 C 123.451 226.119 119.133 222.818 114.381 220.565 C 112.035 219.453 109.606 218.606 107.129 218.036 C 102.918 217.065 99.395 221.011 99.395 225.772 L 99.395 253.352 C 99.395 258.112 102.882 261.971 107.185 261.971 L 130.769 261.971 Z" fill="#615DFF" style=""/>
  <g style="mix-blend-mode: multiply;" transform="matrix(1.558006, 0, 0, 1.723763, 99.394411, 217.153751)">
    <path d="M13.7013 26C10.9399 26 8.65395 23.7425 9.16502 21.0288C9.48544 19.3274 9.97031 17.6594 10.6147 16.0502C11.878 12.8958 13.7295 10.0295 16.0637 7.61522C18.3979 5.2009 21.169 3.28575 24.2187 1.97913C25.7244 1.33406 27.2834 0.843538 28.8733 0.512196C31.5767 -0.0511821 33.8382 2.23858 33.8382 5V21C33.8382 23.7614 31.5996 26 28.8382 26H13.7013Z" fill="#3DD9EB"/>
  </g>
  <text style="white-space: pre; fill: rgb(51, 51, 51); font-family: Arial, sans-serif; font-size: 1.3px;" x="215.418" y="257.735" transform="matrix(41.996212, 0, 0, 43.369137, -8886.593882, -10916.612467)">PGAS</text>
</svg>